<?xml version="1.0" standalone="yes"?>
<svg xmlns="http://www.w3.org/2000/svg" width="500" height="500">
<path style="fill:#1d1f1d; stroke:none;" d="M0 0L0 500L500 500L500 0L0 0z"/>
<path style="fill:#a17326; stroke:none;" d="M152.667 220.333L153.333 220.667L152.667 220.333z"/>
<path style="fill:#f7aa2d; stroke:none;" d="M154 220.479C141.236 222.482 132.732 234.131 135.519 247C136.735 252.618 140.468 256.616 142.744 261.715C144.396 265.416 143.46 273.489 146.603 275.972C149.906 278.582 160.972 277.511 164.977 276.852C170.947 275.869 169.448 266.584 171.553 262C174.058 256.547 178.044 252.19 178.815 246C180.608 231.597 169.156 218.1 154 220.479z"/>
<path style="fill:#a17326; stroke:none;" d="M159 220L159 221L162 221L159 220M149 221L150 222L149 221M164 221L165 222L164 221M167 222L168 223L167 222M145 223L146 224L145 223M157 223L158 224L157 223M169 223L170 224L169 223M151 224L152 225L151 224z"/>
<path style="fill:#5a4620; stroke:none;" d="M152 224L153 225L152 224z"/>
<path style="fill:#2e2a1d; stroke:none;" d="M153 224L154 225L153 224z"/>
<path style="fill:#1d1f1d; stroke:none;" d="M154 224.472C131.836 228.488 141.263 248.238 146.387 261C147.668 264.189 146.854 270.796 149.603 272.972C152.13 274.972 158.936 274.364 161.941 273.852C167.342 272.932 166.391 264.185 168.324 260C170.319 255.681 173.804 251.742 174.725 247C177.085 234.85 166.856 222.143 154 224.472z"/>
<path style="fill:#5a4620; stroke:none;" d="M160.667 224.333L161.333 224.667L160.667 224.333z"/>
<path style="fill:#a17326; stroke:none;" d="M162 224L163 225L162 224M170 224L171 225L170 224M142 225L143 226L142 225z"/>
<path style="fill:#5a4620; stroke:none;" d="M149 225L150 226L149 225z"/>
<path style="fill:#2e2a1d; stroke:none;" d="M163 225L164 226L163 225z"/>
<path style="fill:#5a4620; stroke:none;" d="M164 225L165 226L164 225z"/>
<path style="fill:#a17326; stroke:none;" d="M171 225L172 226L171 225z"/>
<path style="fill:#5a4620; stroke:none;" d="M147 226L148 227L147 226z"/>
<path style="fill:#2e2a1d; stroke:none;" d="M165 226L166 227L165 226z"/>
<path style="fill:#a17326; stroke:none;" d="M166 226L167 227L166 226z"/>
<path style="fill:#2e2a1d; stroke:none;" d="M96 227L97 228L96 227z"/>
<path style="fill:#5a4620; stroke:none;" d="M96 278L97 278L97 228L119 228C115.113 226.369 99.9446 224.921 97.0278 228.603C94.6993 231.543 96 238.469 96 242L96 278z"/>
<path style="fill:#2e2a1d; stroke:none;" d="M119 227L120 228L119 227z"/>
<path style="fill:#a17326; stroke:none;" d="M140 227L141 228L140 227z"/>
<path style="fill:#2e2a1d; stroke:none;" d="M146 227L147 228L146 227z"/>
<path style="fill:#5a4620; stroke:none;" d="M167 227L168 228L167 227z"/>
<path style="fill:#a17326; stroke:none;" d="M173 227L174 228L173 227z"/>
<path style="fill:#5a4620; stroke:none;" d="M314 227L314 228L322 228L314 227M347 227L347 228L355 228L347 227z"/>
<path style="fill:#f7aa2d; stroke:none;" d="M97 228L97 278L104 278C104 273.361 101.913 261.967 106.318 259.028C113.253 254.4 122.04 261.03 128.351 252.895C134.504 244.964 131.913 232.225 121.999 228.854C114.635 226.351 104.712 228 97 228z"/>
<path style="fill:#a17326; stroke:none;" d="M121 228L122 229L121 228z"/>
<path style="fill:#5a4620; stroke:none;" d="M122 228L123 229L122 228z"/>
<path style="fill:#a17326; stroke:none;" d="M144 228L145 229L144 228z"/>
<path style="fill:#2e2a1d; stroke:none;" d="M145 228L146 229L145 228M168 228L169 229L168 228z"/>
<path style="fill:#a17326; stroke:none;" d="M169 228L170 229L169 228M314 228L314 262L315 262L314 228z"/>
<path style="fill:#f7aa2d; stroke:none;" d="M315 228C315 239.366 311.817 256.473 316.367 267C322.364 280.873 344.112 281.948 351.772 268.996C358.223 258.088 355 240.181 355 228L348 228C348 238.094 350.957 253.831 346.312 262.996C341.256 272.97 328.327 273.237 323.318 262.999C318.923 254.017 322 237.874 322 228L315 228z"/>
<path style="fill:#2e2a1d; stroke:none;" d="M322 228L322 260L323 260L322 228z"/>
<path style="fill:#a17326; stroke:none;" d="M347 228L347 261L348 261L347 228z"/>
<path style="fill:#5a4620; stroke:none;" d="M124 229L125 230L124 229M138 229L139 230L138 229z"/>
<path style="fill:#a17326; stroke:none;" d="M143 229L144 230L143 229M170 229L171 230L170 229z"/>
<path style="fill:#5a4620; stroke:none;" d="M175 229L176 230L175 229z"/>
<path style="fill:#a17326; stroke:none;" d="M125 230L126 231L125 230z"/>
<path style="fill:#2e2a1d; stroke:none;" d="M126 230L127 231L126 230z"/>
<path style="fill:#a17326; stroke:none;" d="M142 230L143 231L142 230z"/>
<path style="fill:#2e2a1d; stroke:none;" d="M170 230L171 231L170 230M127 231L128 232L127 231z"/>
<path style="fill:#a17326; stroke:none;" d="M137 231L138 232L137 231z"/>
<path style="fill:#2e2a1d; stroke:none;" d="M142 231L143 232L142 231M171 231L172 232L171 231z"/>
<path style="fill:#a17326; stroke:none;" d="M176 231L177 232L176 231z"/>
<path style="fill:#2e2a1d; stroke:none;" d="M128 232L129 233L128 232z"/>
<path style="fill:#a17326; stroke:none;" d="M141 232L142 233L141 232z"/>
<path style="fill:#5a4620; stroke:none;" d="M172 232L173 233L172 232z"/>
<path style="fill:#2e2a1d; stroke:none;" d="M129 233L130 234L129 233z"/>
<path style="fill:#a17326; stroke:none;" d="M136 233L137 234L136 233M140 233L141 234L140 233M173 233L174 234L173 233M177 233L178 234L177 233M129 234L130 235L129 234z"/>
<path style="fill:#2e2a1d; stroke:none;" d="M140 234L141 235L140 234z"/>
<path style="fill:#5a4620; stroke:none;" d="M173 234L174 235L173 234z"/>
<path style="fill:#a17326; stroke:none;" d="M104 235C104 248.464 103.692 252 118 252L118 251L105 251L104 235z"/>
<path style="fill:#2e2a1d; stroke:none;" d="M105 235L105 236L117 236L105 235z"/>
<path style="fill:#5a4620; stroke:none;" d="M117.667 235.333L118.333 235.667L117.667 235.333z"/>
<path style="fill:#a17326; stroke:none;" d="M119 235L120 236L119 235z"/>
<path style="fill:#2e2a1d; stroke:none;" d="M130 235L131 236L130 235z"/>
<path style="fill:#a17326; stroke:none;" d="M139 235L140 236L139 235M174 235L175 236L174 235z"/>
<path style="fill:#1d1f1d; stroke:none;" d="M105 236L105 251C109.406 251 115.854 252.155 119.786 249.821C124.536 247.001 124.814 239.8 119.891 237.028C115.941 234.803 109.396 236 105 236z"/>
<path style="fill:#5a4620; stroke:none;" d="M120 236L121 237L120 236z"/>
<path style="fill:#a17326; stroke:none;" d="M130 236L131 237L130 236M135.333 236.667L135.667 237.333L135.333 236.667z"/>
<path style="fill:#5a4620; stroke:none;" d="M139 236L140 237L139 236M174 236L175 237L174 236z"/>
<path style="fill:#a17326; stroke:none;" d="M178 236L179 237L178 236z"/>
<path style="fill:#2e2a1d; stroke:none;" d="M121 237L122 238L121 237M131 237L132 238L131 237M174 237L175 238L174 237z"/>
<path style="fill:#5a4620; stroke:none;" d="M122 238L123 239L122 238M131 238L132 239L131 238z"/>
<path style="fill:#a17326; stroke:none;" d="M138 238L138 247L139 247L138 238M175 238L175 241L176 241L175 238M123 239L124 240L123 239M131 239L132 240L131 239z"/>
<path style="fill:#2e2a1d; stroke:none;" d="M254 239L255 240L254 239z"/>
<path style="fill:#5a4620; stroke:none;" d="M255.667 239.333L256.333 239.667L255.667 239.333z"/>
<path style="fill:#a17326; stroke:none;" d="M257 239L257 240L261 240L257 239z"/>
<path style="fill:#5a4620; stroke:none;" d="M261.667 239.333L262.333 239.667L261.667 239.333z"/>
<path style="fill:#2e2a1d; stroke:none;" d="M263 239L264 240L263 239M300 239L301 240L300 239z"/>
<path style="fill:#5a4620; stroke:none;" d="M301 239L302 240L301 239z"/>
<path style="fill:#a17326; stroke:none;" d="M302 239L302 240L305 240L302 239z"/>
<path style="fill:#5a4620; stroke:none;" d="M305 239L306 240L305 239z"/>
<path style="fill:#2e2a1d; stroke:none;" d="M306 239L308 241L306 239M383 239L384 240L383 239z"/>
<path style="fill:#5a4620; stroke:none;" d="M384 239L384 240L389 240L384 239z"/>
<path style="fill:#2e2a1d; stroke:none;" d="M389 239L390 240L389 239z"/>
<path style="fill:#5a4620; stroke:none;" d="M123 240L124 241L123 240z"/>
<path style="fill:#a17326; stroke:none;" d="M181 242L189 241L181 242z"/>
<path style="fill:#2e2a1d; stroke:none;" d="M227 240L228 241L227 240z"/>
<path style="fill:#a17326; stroke:none;" d="M227 241L227 242L235 241L227 241z"/>
<path style="fill:#5a4620; stroke:none;" d="M235 240L236 241L235 240z"/>
<path style="fill:#2e2a1d; stroke:none;" d="M251 240L252 241L251 240z"/>
<path style="fill:#a17326; stroke:none;" d="M252.667 240.333L253.333 240.667L252.667 240.333z"/>
<path style="fill:#f7aa2d; stroke:none;" d="M274 274L271 268L270 268C260.777 274.484 251.193 271.685 247 261L276 261C275.99 257.226 275.977 253.556 274.517 250.001C262.661 221.133 220.758 259.354 249.004 275.633C252.482 277.637 256.063 278.023 260 277.995C265.325 277.958 269.321 276.391 274 274z"/>
<path style="fill:#a17326; stroke:none;" d="M264 240L265 241L264 240z"/>
<path style="fill:#5a4620; stroke:none;" d="M265 240L266 241L265 240z"/>
<path style="fill:#a17326; stroke:none;" d="M284 240L284 241L291 241L291 247L292 247L292 240L284 240z"/>
<path style="fill:#2e2a1d; stroke:none;" d="M297 240L298 241L297 240z"/>
<path style="fill:#a17326; stroke:none;" d="M298 240L299 241L298 240z"/>
<path style="fill:#f7aa2d; stroke:none;" d="M291 247L291 241L284 241L284 278L291 278C291 267.543 287.949 244.733 305 248L307 240C299.784 240.021 296.173 241.952 291 247z"/>
<path style="fill:#a17326; stroke:none;" d="M366 240L366 294L367 294L367 258L366 240z"/>
<path style="fill:#f7aa2d; stroke:none;" d="M367 240L367 294C377.344 293.66 374 280.709 374 273C376.466 275.02 378.813 276.88 382 277.606C409.518 283.871 409.887 235.203 383 240.34C379.504 241.008 376.789 242.916 374 245C373.272 240.638 371.176 240.137 367 240z"/>
<path style="fill:#a17326; stroke:none;" d="M373 240L374 241L373 240z"/>
<path style="fill:#5a4620; stroke:none;" d="M380 240L381 241L380 240z"/>
<path style="fill:#a17326; stroke:none;" d="M381 240L382 241L381 240M391 240L392 241L391 240z"/>
<path style="fill:#5a4620; stroke:none;" d="M392 240L393 241L392 240M175 241L175 244L176 244L175 241M179.333 241.667L179.667 242.333L179.333 241.667z"/>
<path style="fill:#f7aa2d; stroke:none;" d="M182 241C183.458 250.736 188.194 260.648 191.333 270C192.2 272.582 193.578 278.943 197.65 277.338C202.905 275.267 205.716 260.884 208 256C210.998 263.306 213.977 277.303 223 278L235 241C224.124 241.129 222.1 256.923 220 266L219 266C217.853 262.017 212.938 245.567 207.181 247.662C202.15 249.493 199.383 261.531 197 266L189 241L182 241z"/>
<path style="fill:#2e2a1d; stroke:none;" d="M235 241L236 242L235 241M249 241L250 242L249 241z"/>
<path style="fill:#a17326; stroke:none;" d="M250 241L251 242L250 241z"/>
<path style="fill:#5a4620; stroke:none;" d="M267 241L268 242L267 241M296 241L297 242L296 241M378 241L379 242L378 241z"/>
<path style="fill:#a17326; stroke:none;" d="M393 241L394 242L393 241z"/>
<path style="fill:#5a4620; stroke:none;" d="M394 241L395 242L394 241z"/>
<path style="fill:#2e2a1d; stroke:none;" d="M181 242L182 243L181 242z"/>
<path style="fill:#5a4620; stroke:none;" d="M189 242L190 243L189 242z"/>
<path style="fill:#a17326; stroke:none;" d="M234 242L235 243L234 242M248 242L249 243L248 242M268 242L269 243L268 242z"/>
<path style="fill:#2e2a1d; stroke:none;" d="M269 242L270 243L269 242z"/>
<path style="fill:#a17326; stroke:none;" d="M295 242L296 243L295 242M306.333 242.667L306.667 243.333L306.333 242.667z"/>
<path style="fill:#2e2a1d; stroke:none;" d="M376 242L377 243L376 242z"/>
<path style="fill:#a17326; stroke:none;" d="M377 242L378 243L377 242M395 242L396 243L395 242z"/>
<path style="fill:#2e2a1d; stroke:none;" d="M396 242L397 243L396 242M132 243L133 244L132 243z"/>
<path style="fill:#a17326; stroke:none;" d="M189 243L190 244L189 243z"/>
<path style="fill:#2e2a1d; stroke:none;" d="M226 243L227 244L226 243z"/>
<path style="fill:#5a4620; stroke:none;" d="M234 243L235 244L234 243z"/>
<path style="fill:#2e2a1d; stroke:none;" d="M246 243L247 244L246 243z"/>
<path style="fill:#5a4620; stroke:none;" d="M270 243L271 244L270 243z"/>
<path style="fill:#a17326; stroke:none;" d="M294 243L295 244L294 243z"/>
<path style="fill:#2e2a1d; stroke:none;" d="M375 243L376 244L375 243M397 243L398 244L397 243z"/>
<path style="fill:#a17326; stroke:none;" d="M175 244L175 247L176 247L175 244M182 244L183 245L182 244M226.333 244.667L226.667 245.333L226.333 244.667z"/>
<path style="fill:#2e2a1d; stroke:none;" d="M234 244L235 245L234 244z"/>
<path style="fill:#5a4620; stroke:none;" d="M245 244L246 245L245 244M271 244L272 245L271 244z"/>
<path style="fill:#a17326; stroke:none;" d="M293 244L294 245L293 244z"/>
<path style="fill:#5a4620; stroke:none;" d="M306 244L307 245L306 244z"/>
<path style="fill:#2e2a1d; stroke:none;" d="M374 244L375 245L374 244z"/>
<path style="fill:#5a4620; stroke:none;" d="M398 244L399 245L398 244z"/>
<path style="fill:#2e2a1d; stroke:none;" d="M123 245L124 246L123 245M182 245L183 246L182 245z"/>
<path style="fill:#5a4620; stroke:none;" d="M190 245L191 246L190 245z"/>
<path style="fill:#a17326; stroke:none;" d="M233 245L234 246L233 245z"/>
<path style="fill:#2e2a1d; stroke:none;" d="M244 245L245 246L244 245M272 245L273 246L272 245z"/>
<path style="fill:#5a4620; stroke:none;" d="M292 245L293 246L292 245z"/>
<path style="fill:#2e2a1d; stroke:none;" d="M399 245L400 246L399 245z"/>
<path style="fill:#a17326; stroke:none;" d="M123 246L124 247L123 246M131.333 246.667L131.667 247.333L131.333 246.667M190 246L191 247L190 246z"/>
<path style="fill:#2e2a1d; stroke:none;" d="M205 246L206 247L205 246z"/>
<path style="fill:#a17326; stroke:none;" d="M206 246L206 247L211 247L206 246z"/>
<path style="fill:#2e2a1d; stroke:none;" d="M225 246L226 247L225 246z"/>
<path style="fill:#5a4620; stroke:none;" d="M233 246L234 247L233 246z"/>
<path style="fill:#2e2a1d; stroke:none;" d="M243 246L244 247L243 246z"/>
<path style="fill:#a17326; stroke:none;" d="M255.667 246.333L256.333 246.667L255.667 246.333z"/>
<path style="fill:#5a4620; stroke:none;" d="M257 246L257 247L261 247L257 246z"/>
<path style="fill:#a17326; stroke:none;" d="M261 246L262 247L261 246M305.333 246.667L305.667 247.333L305.333 246.667M382 246L382 247L388 247L382 246z"/>
<path style="fill:#2e2a1d; stroke:none;" d="M122 247L123 248L122 247z"/>
<path style="fill:#a17326; stroke:none;" d="M135.333 247.667L135.667 248.333L135.333 247.667M183 247L184 248L183 247M205 247L206 248L205 247z"/>
<path style="fill:#2e2a1d; stroke:none;" d="M211 247L212 248L211 247z"/>
<path style="fill:#a17326; stroke:none;" d="M225.333 247.667L225.667 248.333L225.333 247.667M243 247L244 248L243 247z"/>
<path style="fill:#5a4620; stroke:none;" d="M253 247L254 248L253 247z"/>
<path style="fill:#1d1f1d; stroke:none;" d="M248 255L268 255C265.687 243.781 251.36 245.206 248 255z"/>
<path style="fill:#5a4620; stroke:none;" d="M263 247L264 248L263 247z"/>
<path style="fill:#a17326; stroke:none;" d="M273 247L274 248L273 247M299.667 247.333L300.333 247.667L299.667 247.333z"/>
<path style="fill:#5a4620; stroke:none;" d="M301 247L302 248L301 247z"/>
<path style="fill:#a17326; stroke:none;" d="M302.667 247.333L303.333 247.667L302.667 247.333z"/>
<path style="fill:#5a4620; stroke:none;" d="M380 247L381 248L380 247z"/>
<path style="fill:#2e2a1d; stroke:none;" d="M381 247L382 248L381 247z"/>
<path style="fill:#1d1f1d; stroke:none;" d="M382.004 247.573C368.491 251.43 373.782 274.405 387.999 270.566C401.587 266.897 396.273 243.5 382.004 247.573z"/>
<path style="fill:#5a4620; stroke:none;" d="M389 247L390 248L389 247z"/>
<path style="fill:#a17326; stroke:none;" d="M400 247L401 248L400 247M122 248L123 249L122 248z"/>
<path style="fill:#2e2a1d; stroke:none;" d="M131 248L132 249L131 248z"/>
<path style="fill:#a17326; stroke:none;" d="M139.333 248.667L139.667 249.333L139.333 248.667M178 248L179 249L178 248z"/>
<path style="fill:#2e2a1d; stroke:none;" d="M183 248L184 249L183 248z"/>
<path style="fill:#5a4620; stroke:none;" d="M191 248L192 249L191 248z"/>
<path style="fill:#a17326; stroke:none;" d="M211 248L212 249L211 248M232 248L233 249L232 248z"/>
<path style="fill:#5a4620; stroke:none;" d="M242 248L243 249L242 248M251 248L252 249L251 248z"/>
<path style="fill:#2e2a1d; stroke:none;" d="M264 248L265 249L264 248z"/>
<path style="fill:#a17326; stroke:none;" d="M265 248L266 249L265 248z"/>
<path style="fill:#2e2a1d; stroke:none;" d="M274 248L275 249L274 248z"/>
<path style="fill:#a17326; stroke:none;" d="M296 248L297 249L296 248z"/>
<path style="fill:#5a4620; stroke:none;" d="M297 248L298 249L297 248z"/>
<path style="fill:#2e2a1d; stroke:none;" d="M305 248L306 249L305 248z"/>
<path style="fill:#a17326; stroke:none;" d="M378 248L379 249L378 248M391 248L392 249L391 248z"/>
<path style="fill:#2e2a1d; stroke:none;" d="M401 248L402 249L401 248z"/>
<path style="fill:#a17326; stroke:none;" d="M121 249L122 250L121 249M130 249L131 250L130 249M174 249L175 250L174 249M184.333 249.667L184.667 250.333L184.333 249.667M191 249L192 250L191 249z"/>
<path style="fill:#5a4620; stroke:none;" d="M204 249L205 250L204 249z"/>
<path style="fill:#2e2a1d; stroke:none;" d="M212 249L213 250L212 249M224 249L225 250L224 249z"/>
<path style="fill:#5a4620; stroke:none;" d="M232 249L233 250L232 249M250 249L251 250L250 249z"/>
<path style="fill:#a17326; stroke:none;" d="M266 249L267 250L266 249M274 249L275 250L274 249M295 249L296 250L295 249z"/>
<path style="fill:#5a4620; stroke:none;" d="M377 249L378 250L377 249M392 249L393 250L392 249z"/>
<path style="fill:#a17326; stroke:none;" d="M401 249L402 250L401 249z"/>
<path style="fill:#5a4620; stroke:none;" d="M119 250L120 251L119 250z"/>
<path style="fill:#a17326; stroke:none;" d="M120 250L121 251L120 250z"/>
<path style="fill:#5a4620; stroke:none;" d="M130 250L131 251L130 250z"/>
<path style="fill:#a17326; stroke:none;" d="M136 250L137 251L136 250z"/>
<path style="fill:#5a4620; stroke:none;" d="M140 250L141 251L140 250z"/>
<path style="fill:#2e2a1d; stroke:none;" d="M173 250L174 251L173 250z"/>
<path style="fill:#a17326; stroke:none;" d="M212 250L213 251L212 250z"/>
<path style="fill:#5a4620; stroke:none;" d="M224 250L225 251L224 250M241 250L242 251L241 250M249 250L250 251L249 250z"/>
<path style="fill:#a17326; stroke:none;" d="M267 250L268 251L267 250z"/>
<path style="fill:#5a4620; stroke:none;" d="M294 250L295 251L294 250M376 250L377 251L376 250M393 250L394 251L393 250z"/>
<path style="fill:#2e2a1d; stroke:none;" d="M402 250L403 251L402 250z"/>
<path style="fill:#a17326; stroke:none;" d="M129 251L130 252L129 251z"/>
<path style="fill:#2e2a1d; stroke:none;" d="M136 251L137 252L136 251z"/>
<path style="fill:#a17326; stroke:none;" d="M140 251L141 252L140 251M173 251L174 252L173 251M177 251L178 252L177 251z"/>
<path style="fill:#2e2a1d; stroke:none;" d="M184 251L185 252L184 251z"/>
<path style="fill:#5a4620; stroke:none;" d="M192 251L193 252L192 251M203 251L204 252L203 251z"/>
<path style="fill:#2e2a1d; stroke:none;" d="M213 251L214 252L213 251z"/>
<path style="fill:#a17326; stroke:none;" d="M224 251L225 252L224 251M231 251L232 252L231 251M241 251L242 252L241 251z"/>
<path style="fill:#2e2a1d; stroke:none;" d="M267 251L268 252L267 251z"/>
<path style="fill:#5a4620; stroke:none;" d="M275 251L276 252L275 251z"/>
<path style="fill:#a17326; stroke:none;" d="M293 251L294 252L293 251M375 251L376 252L375 251M394 251L395 252L394 251M402 251L403 252L402 251z"/>
<path style="fill:#2e2a1d; stroke:none;" d="M129 252L130 253L129 252z"/>
<path style="fill:#a17326; stroke:none;" d="M141 252L142 253L141 252z"/>
<path style="fill:#2e2a1d; stroke:none;" d="M172 252L173 253L172 252z"/>
<path style="fill:#a17326; stroke:none;" d="M185 252L186 253L185 252M192 252L193 253L192 252M203 252L204 253L203 252z"/>
<path style="fill:#5a4620; stroke:none;" d="M213 252L214 253L213 252z"/>
<path style="fill:#2e2a1d; stroke:none;" d="M223 252L224 253L223 252z"/>
<path style="fill:#5a4620; stroke:none;" d="M231 252L232 253L231 252z"/>
<path style="fill:#2e2a1d; stroke:none;" d="M240 252L241 253L240 252z"/>
<path style="fill:#5a4620; stroke:none;" d="M248 252L249 253L248 252z"/>
<path style="fill:#a17326; stroke:none;" d="M268.333 252.667L268.667 253.333L268.333 252.667M275 252L276 253L275 252z"/>
<path style="fill:#2e2a1d; stroke:none;" d="M375 252L376 253L375 252M394 252L395 253L394 252z"/>
<path style="fill:#5a4620; stroke:none;" d="M128 253L129 254L128 253z"/>
<path style="fill:#a17326; stroke:none;" d="M172 253L173 254L172 253M176 253L177 254L176 253z"/>
<path style="fill:#5a4620; stroke:none;" d="M185 253L186 254L185 253M202 253L203 254L202 253M223 253L224 254L223 253M240 253L241 254L240 253M292 253L293 254L292 253z"/>
<path style="fill:#a17326; stroke:none;" d="M374 253L375 254L374 253M395 253L396 254L395 253z"/>
<path style="fill:#2e2a1d; stroke:none;" d="M403 253L404 254L403 253z"/>
<path style="fill:#5a4620; stroke:none;" d="M127 254L128 255L127 254z"/>
<path style="fill:#a17326; stroke:none;" d="M138 254L139 255L138 254M142 254L143 255L142 254M171 254L172 255L171 254z"/>
<path style="fill:#2e2a1d; stroke:none;" d="M185 254L186 255L185 254z"/>
<path style="fill:#5a4620; stroke:none;" d="M193 254L194 255L193 254z"/>
<path style="fill:#a17326; stroke:none;" d="M202 254L203 255L202 254z"/>
<path style="fill:#5a4620; stroke:none;" d="M214 254L215 255L214 254z"/>
<path style="fill:#a17326; stroke:none;" d="M223 254L224 255L223 254M230 254L231 255L230 254M240 254L241 255L240 254M247 254L248 255L247 254z"/>
<path style="fill:#5a4620; stroke:none;" d="M268 254L269 255L268 254M374 254L375 255L374 254z"/>
<path style="fill:#2e2a1d; stroke:none;" d="M395 254L396 255L395 254z"/>
<path style="fill:#5a4620; stroke:none;" d="M403 254L404 255L403 254M126 255L127 256L126 255z"/>
<path style="fill:#a17326; stroke:none;" d="M143 255L144 256L143 255M170 255L171 256L170 255M186 255L187 256L186 255M193 255L194 256L193 255z"/>
<path style="fill:#2e2a1d; stroke:none;" d="M201 255L202 256L201 255z"/>
<path style="fill:#a17326; stroke:none;" d="M214 255L215 256L214 255z"/>
<path style="fill:#2e2a1d; stroke:none;" d="M222 255L223 256L222 255z"/>
<path style="fill:#5a4620; stroke:none;" d="M230 255L231 256L230 255z"/>
<path style="fill:#2e2a1d; stroke:none;" d="M276.333 255.667L276.667 256.333L276.333 255.667z"/>
<path style="fill:#a17326; stroke:none;" d="M291 255L291 278L292 278L291 255M403 255L403 263L404 263L403 255M124 256L125 257L124 256z"/>
<path style="fill:#2e2a1d; stroke:none;" d="M125 256L126 257L125 256z"/>
<path style="fill:#a17326; stroke:none;" d="M139 256L140 257L139 256z"/>
<path style="fill:#5a4620; stroke:none;" d="M186 256L187 257L186 256z"/>
<path style="fill:#a17326; stroke:none;" d="M201 256L202 257L201 256M207 256L208 257L207 256z"/>
<path style="fill:#5a4620; stroke:none;" d="M215 256L216 257L215 256M222 256L223 257L222 256z"/>
<path style="fill:#a17326; stroke:none;" d="M373 256L373 262L374 262L373 256M396.333 256.667L396.667 257.333L396.333 256.667M122 257L123 258L122 257z"/>
<path style="fill:#5a4620; stroke:none;" d="M123 257L124 258L123 257z"/>
<path style="fill:#a17326; stroke:none;" d="M140 257L141 258L140 257M169 257L170 258L169 257z"/>
<path style="fill:#2e2a1d; stroke:none;" d="M186 257L187 258L186 257z"/>
<path style="fill:#5a4620; stroke:none;" d="M194 257L195 258L194 257z"/>
<path style="fill:#2e2a1d; stroke:none;" d="M200 257L201 258L200 257z"/>
<path style="fill:#5a4620; stroke:none;" d="M207.667 257.333L208.333 257.667L207.667 257.333z"/>
<path style="fill:#a17326; stroke:none;" d="M215 257L216 258L215 257M222 257L223 258L222 257M229 257L230 258L229 257z"/>
<path style="fill:#5a4620; stroke:none;" d="M276 257L276 260L277 260L276 257z"/>
<path style="fill:#a17326; stroke:none;" d="M105 258L105 259L120 259L105 258z"/>
<path style="fill:#5a4620; stroke:none;" d="M120 258L121 259L120 258z"/>
<path style="fill:#2e2a1d; stroke:none;" d="M121 258L122 259L121 258z"/>
<path style="fill:#a17326; stroke:none;" d="M145.333 258.667L145.667 259.333L145.333 258.667M187 258L188 259L187 258M194 258L195 259L194 258M200 258L201 259L200 258z"/>
<path style="fill:#2e2a1d; stroke:none;" d="M207.667 258.333L208.333 258.667L207.667 258.333M216 258L217 259L216 258M221 258L222 259L221 258z"/>
<path style="fill:#5a4620; stroke:none;" d="M229 258L230 259L229 258z"/>
<path style="fill:#2e2a1d; stroke:none;" d="M239 258L239 261L240 261L239 258z"/>
<path style="fill:#5a4620; stroke:none;" d="M396.333 258.667L396.667 259.333L396.333 258.667z"/>
<path style="fill:#a17326; stroke:none;" d="M104 259L104 278L105 278L104 259M168 259L169 260L168 259M172 259L173 260L172 259z"/>
<path style="fill:#5a4620; stroke:none;" d="M187 259L188 260L187 259z"/>
<path style="fill:#a17326; stroke:none;" d="M206 259L207 260L206 259M209 259L210 260L209 259M216 259L217 260L216 259z"/>
<path style="fill:#5a4620; stroke:none;" d="M221 259L222 260L221 259z"/>
<path style="fill:#a17326; stroke:none;" d="M142.333 260.667L142.667 261.333L142.333 260.667M146 260L146 263L147 263L146 260z"/>
<path style="fill:#2e2a1d; stroke:none;" d="M187 260L188 261L187 260M195 260L196 261L195 260z"/>
<path style="fill:#5a4620; stroke:none;" d="M199 260L200 261L199 260z"/>
<path style="fill:#2e2a1d; stroke:none;" d="M206 260L207 261L206 260M209 260L210 261L209 260M217 260L218 261L217 260z"/>
<path style="fill:#a17326; stroke:none;" d="M221 260L222 261L221 260M228 260L229 261L228 260z"/>
<path style="fill:#2e2a1d; stroke:none;" d="M276 260L277 261L276 260z"/>
<path style="fill:#5a4620; stroke:none;" d="M322 260L323 261L322 260z"/>
<path style="fill:#a17326; stroke:none;" d="M354 260L354 263L355 263L354 260M396 260L396 263L397 263L396 260M167.333 261.667L167.667 262.333L167.333 261.667M171 261L172 262L171 261M188 261L189 262L188 261M195 261L196 262L195 261M205 261L206 262L205 261M210 261L211 262L210 261M217 261L218 262L217 261z"/>
<path style="fill:#2e2a1d; stroke:none;" d="M220 261L221 262L220 261z"/>
<path style="fill:#5a4620; stroke:none;" d="M228 261L229 262L228 261M247 261L248 262L247 261z"/>
<path style="fill:#a17326; stroke:none;" d="M322 261L323 262L322 261M143 262L144 263L143 262z"/>
<path style="fill:#5a4620; stroke:none;" d="M188 262L189 263L188 262M198 262L199 263L198 262M205 262L206 263L205 262M210 262L211 263L210 262z"/>
<path style="fill:#2e2a1d; stroke:none;" d="M218 262L219 263L218 262z"/>
<path style="fill:#5a4620; stroke:none;" d="M220 262L221 263L220 262z"/>
<path style="fill:#a17326; stroke:none;" d="M247 262L248 263L247 262z"/>
<path style="fill:#5a4620; stroke:none;" d="M314 262L315 263L314 262M346 262L347 263L346 262z"/>
<path style="fill:#2e2a1d; stroke:none;" d="M188 263L189 264L188 263M196 263L197 264L196 263z"/>
<path style="fill:#a17326; stroke:none;" d="M198 263L199 264L198 263z"/>
<path style="fill:#5a4620; stroke:none;" d="M218 263L219 264L218 263z"/>
<path style="fill:#a17326; stroke:none;" d="M220 263L221 264L220 263M227 263L228 264L227 263M240.333 263.667L240.667 264.333L240.333 263.667z"/>
<path style="fill:#2e2a1d; stroke:none;" d="M314 263L315 264L314 263z"/>
<path style="fill:#5a4620; stroke:none;" d="M323 263L324 264L323 263z"/>
<path style="fill:#a17326; stroke:none;" d="M346 263L347 264L346 263z"/>
<path style="fill:#5a4620; stroke:none;" d="M354 263L355 264L354 263M374 263L375 264L374 263z"/>
<path style="fill:#2e2a1d; stroke:none;" d="M395 263L396 264L395 263z"/>
<path style="fill:#5a4620; stroke:none;" d="M403 263L404 264L403 263z"/>
<path style="fill:#a17326; stroke:none;" d="M147 264L148 265L147 264M166 264L167 265L166 264M170 264L171 265L170 264M189 264L190 265L189 264M196 264L198 266L196 264z"/>
<path style="fill:#5a4620; stroke:none;" d="M197 264L198 265L197 264z"/>
<path style="fill:#a17326; stroke:none;" d="M204 264L205 265L204 264z"/>
<path style="fill:#5a4620; stroke:none;" d="M211 264L212 265L211 264z"/>
<path style="fill:#2e2a1d; stroke:none;" d="M219 264L220 265L219 264z"/>
<path style="fill:#5a4620; stroke:none;" d="M227 264L228 265L227 264M248 264L249 265L248 264z"/>
<path style="fill:#a17326; stroke:none;" d="M323 264L324 265L323 264z"/>
<path style="fill:#5a4620; stroke:none;" d="M345 264L346 265L345 264z"/>
<path style="fill:#2e2a1d; stroke:none;" d="M354 264L355 265L354 264z"/>
<path style="fill:#a17326; stroke:none;" d="M374 264L375 265L374 264z"/>
<path style="fill:#5a4620; stroke:none;" d="M395 264L396 265L395 264z"/>
<path style="fill:#2e2a1d; stroke:none;" d="M403 264L404 265L403 264z"/>
<path style="fill:#a17326; stroke:none;" d="M144.333 265.667L144.667 266.333L144.333 265.667z"/>
<path style="fill:#5a4620; stroke:none;" d="M166 265L167 266L166 265M189 265L190 266L189 265z"/>
<path style="fill:#2e2a1d; stroke:none;" d="M204 265L205 266L204 265z"/>
<path style="fill:#a17326; stroke:none;" d="M219 265L220 266L219 265z"/>
<path style="fill:#5a4620; stroke:none;" d="M240 265L241 266L240 265z"/>
<path style="fill:#a17326; stroke:none;" d="M248 265L249 266L248 265M315 265L316 266L315 265z"/>
<path style="fill:#5a4620; stroke:none;" d="M324 265L325 266L324 265z"/>
<path style="fill:#a17326; stroke:none;" d="M353 265L354 266L353 265z"/>
<path style="fill:#2e2a1d; stroke:none;" d="M375 265L376 266L375 265z"/>
<path style="fill:#a17326; stroke:none;" d="M147.333 266.667L147.667 267.333L147.333 266.667M166.333 266.667L166.667 267.333L166.333 266.667M203 266L204 267L203 266M212 266L213 267L212 266M226 266L227 267L226 266z"/>
<path style="fill:#5a4620; stroke:none;" d="M249 266L250 267L249 266M315 266L316 267L315 266M325 266L326 267L325 266z"/>
<path style="fill:#a17326; stroke:none;" d="M344 266L345 267L344 266z"/>
<path style="fill:#5a4620; stroke:none;" d="M353 266L354 267L353 266z"/>
<path style="fill:#a17326; stroke:none;" d="M375 266L376 267L375 266M394 266L395 267L394 266M402 266L403 267L402 266M190 267L191 268L190 267z"/>
<path style="fill:#5a4620; stroke:none;" d="M203 267L204 268L203 267z"/>
<path style="fill:#2e2a1d; stroke:none;" d="M212 267L213 268L212 267z"/>
<path style="fill:#5a4620; stroke:none;" d="M226 267L227 268L226 267z"/>
<path style="fill:#a17326; stroke:none;" d="M241 267L242 268L241 267z"/>
<path style="fill:#2e2a1d; stroke:none;" d="M250 267L251 268L250 267M270 267L271 268L270 267z"/>
<path style="fill:#a17326; stroke:none;" d="M316 267L317 268L316 267z"/>
<path style="fill:#5a4620; stroke:none;" d="M326 267L327 268L326 267z"/>
<path style="fill:#a17326; stroke:none;" d="M343 267L344 268L343 267z"/>
<path style="fill:#5a4620; stroke:none;" d="M376 267L377 268L376 267z"/>
<path style="fill:#2e2a1d; stroke:none;" d="M393 267L394 268L393 267M402 267L403 268L402 267z"/>
<path style="fill:#a17326; stroke:none;" d="M144 268L144 273L145 273L144 268M169 268L169 274L170 274L169 268z"/>
<path style="fill:#5a4620; stroke:none;" d="M190 268L191 269L190 268z"/>
<path style="fill:#a17326; stroke:none;" d="M213 268L214 269L213 268z"/>
<path style="fill:#2e2a1d; stroke:none;" d="M241 268L242 269L241 268M251 268L252 269L251 268z"/>
<path style="fill:#5a4620; stroke:none;" d="M269 268L270 269L269 268z"/>
<path style="fill:#a17326; stroke:none;" d="M271 268L272 269L271 268z"/>
<path style="fill:#5a4620; stroke:none;" d="M316 268L317 269L316 268M327 268L328 269L327 268z"/>
<path style="fill:#2e2a1d; stroke:none;" d="M341 268L342 269L341 268z"/>
<path style="fill:#a17326; stroke:none;" d="M342 268L343 269L342 268z"/>
<path style="fill:#5a4620; stroke:none;" d="M352 268L353 269L352 268M377 268L378 269L377 268z"/>
<path style="fill:#2e2a1d; stroke:none;" d="M392 268L393 269L392 268z"/>
<path style="fill:#a17326; stroke:none;" d="M401 268L402 269L401 268M166 269L166 273L167 273L166 269M202 269L203 270L202 269z"/>
<path style="fill:#2e2a1d; stroke:none;" d="M213 269L214 270L213 269z"/>
<path style="fill:#a17326; stroke:none;" d="M225 269L226 270L225 269M242 269L243 270L242 269z"/>
<path style="fill:#5a4620; stroke:none;" d="M252 269L253 270L252 269z"/>
<path style="fill:#a17326; stroke:none;" d="M268 269L269 270L268 269z"/>
<path style="fill:#5a4620; stroke:none;" d="M272 269L273 270L272 269z"/>
<path style="fill:#a17326; stroke:none;" d="M317 269L318 270L317 269M328 269L329 270L328 269z"/>
<path style="fill:#5a4620; stroke:none;" d="M329 269L330 270L329 269z"/>
<path style="fill:#2e2a1d; stroke:none;" d="M339 269L340 270L339 269z"/>
<path style="fill:#a17326; stroke:none;" d="M340 269L341 270L340 269M351 269L352 270L351 269z"/>
<path style="fill:#5a4620; stroke:none;" d="M378 269L379 270L378 269M391 269L392 270L391 269M401 269L402 270L401 269z"/>
<path style="fill:#a17326; stroke:none;" d="M191 270L192 271L191 270z"/>
<path style="fill:#2e2a1d; stroke:none;" d="M202 270L203 271L202 270z"/>
<path style="fill:#a17326; stroke:none;" d="M214 270L215 271L214 270z"/>
<path style="fill:#5a4620; stroke:none;" d="M225 270L226 271L225 270z"/>
<path style="fill:#a17326; stroke:none;" d="M253 270L254 271L253 270z"/>
<path style="fill:#5a4620; stroke:none;" d="M254 270L255 271L254 270M266 270L267 271L266 270z"/>
<path style="fill:#2e2a1d; stroke:none;" d="M317 270L318 271L317 270z"/>
<path style="fill:#a17326; stroke:none;" d="M330.667 270.333L331.333 270.667L330.667 270.333z"/>
<path style="fill:#5a4620; stroke:none;" d="M332 270L333 271L332 270z"/>
<path style="fill:#2e2a1d; stroke:none;" d="M333 270L333 271L336 271L333 270z"/>
<path style="fill:#5a4620; stroke:none;" d="M336.667 270.333L337.333 270.667L336.667 270.333z"/>
<path style="fill:#a17326; stroke:none;" d="M338 270L339 271L338 270z"/>
<path style="fill:#2e2a1d; stroke:none;" d="M351 270L352 271L351 270z"/>
<path style="fill:#a17326; stroke:none;" d="M379 270L380 271L379 270z"/>
<path style="fill:#2e2a1d; stroke:none;" d="M380 270L381 271L380 270M389 270L390 271L389 270z"/>
<path style="fill:#a17326; stroke:none;" d="M390 270L391 271L390 270M400 270L401 271L400 270z"/>
<path style="fill:#5a4620; stroke:none;" d="M191 271L192 272L191 271z"/>
<path style="fill:#a17326; stroke:none;" d="M201 271L202 272L201 271z"/>
<path style="fill:#5a4620; stroke:none;" d="M214 271L215 272L214 271M243 271L244 272L243 271z"/>
<path style="fill:#a17326; stroke:none;" d="M256 271L257 272L256 271z"/>
<path style="fill:#5a4620; stroke:none;" d="M257 271L258 272L257 271z"/>
<path style="fill:#2e2a1d; stroke:none;" d="M258 271L258 272L263 272L258 271z"/>
<path style="fill:#5a4620; stroke:none;" d="M263 271L264 272L263 271z"/>
<path style="fill:#a17326; stroke:none;" d="M264 271L265 272L264 271M273 271L274 272L273 271z"/>
<path style="fill:#5a4620; stroke:none;" d="M318 271L319 272L318 271M350 271L351 272L350 271z"/>
<path style="fill:#a17326; stroke:none;" d="M381.667 271.333L382.333 271.667L381.667 271.333z"/>
<path style="fill:#5a4620; stroke:none;" d="M383 271L383 272L387 272L383 271z"/>
<path style="fill:#a17326; stroke:none;" d="M387.667 271.333L388.333 271.667L387.667 271.333z"/>
<path style="fill:#2e2a1d; stroke:none;" d="M400 271L401 272L400 271z"/>
<path style="fill:#5a4620; stroke:none;" d="M201 272L202 273L201 272z"/>
<path style="fill:#a17326; stroke:none;" d="M224 272L225 273L224 272z"/>
<path style="fill:#5a4620; stroke:none;" d="M244 272L245 273L244 272M274 272L275 273L274 272M319 272L320 273L319 272z"/>
<path style="fill:#a17326; stroke:none;" d="M349 272L350 273L349 272z"/>
<path style="fill:#5a4620; stroke:none;" d="M399 272L400 273L399 272M144 273L145 274L144 273M148 273L149 274L148 273z"/>
<path style="fill:#2e2a1d; stroke:none;" d="M165 273L166 274L165 273z"/>
<path style="fill:#a17326; stroke:none;" d="M192 273L193 274L192 273z"/>
<path style="fill:#5a4620; stroke:none;" d="M215 273L216 274L215 273M224 273L225 274L224 273M245 273L246 274L245 273z"/>
<path style="fill:#2e2a1d; stroke:none;" d="M274 273L275 274L274 273z"/>
<path style="fill:#5a4620; stroke:none;" d="M320 273L321 274L320 273M348 273L349 274L348 273z"/>
<path style="fill:#a17326; stroke:none;" d="M374 273L375 274L374 273z"/>
<path style="fill:#5a4620; stroke:none;" d="M398 273L399 274L398 273M192 274L193 275L192 274M200 274L201 275L200 274M246 274L247 275L246 274z"/>
<path style="fill:#a17326; stroke:none;" d="M272 274L273 275L272 274z"/>
<path style="fill:#2e2a1d; stroke:none;" d="M273 274L274 275L273 274M321 274L322 275L321 274z"/>
<path style="fill:#5a4620; stroke:none;" d="M347 274L348 275L347 274z"/>
<path style="fill:#a17326; stroke:none;" d="M375 274L376 275L375 274z"/>
<path style="fill:#5a4620; stroke:none;" d="M397 274L398 275L397 274z"/>
<path style="fill:#2e2a1d; stroke:none;" d="M200 275L201 276L200 275z"/>
<path style="fill:#a17326; stroke:none;" d="M216 275L217 276L216 275M223 275L224 276L223 275z"/>
<path style="fill:#2e2a1d; stroke:none;" d="M247 275L248 276L247 275z"/>
<path style="fill:#a17326; stroke:none;" d="M248 275L249 276L248 275z"/>
<path style="fill:#5a4620; stroke:none;" d="M271 275L272 276L271 275z"/>
<path style="fill:#a17326; stroke:none;" d="M323 275L324 276L323 275M345 275L346 276L345 275z"/>
<path style="fill:#2e2a1d; stroke:none;" d="M346 275L347 276L346 275z"/>
<path style="fill:#5a4620; stroke:none;" d="M376 275L377 276L376 275M396 275L397 276L396 275z"/>
<path style="fill:#a17326; stroke:none;" d="M193 276L194 277L193 276M199 276L200 277L199 276z"/>
<path style="fill:#2e2a1d; stroke:none;" d="M216 276L217 277L216 276z"/>
<path style="fill:#5a4620; stroke:none;" d="M223 276L224 277L223 276M249 276L250 277L249 276z"/>
<path style="fill:#a17326; stroke:none;" d="M250 276L251 277L250 276z"/>
<path style="fill:#5a4620; stroke:none;" d="M269 276L270 277L269 276z"/>
<path style="fill:#2e2a1d; stroke:none;" d="M324 276L325 277L324 276z"/>
<path style="fill:#a17326; stroke:none;" d="M325 276L326 277L325 276M343 276L344 277L343 276z"/>
<path style="fill:#2e2a1d; stroke:none;" d="M344 276L345 277L344 276M377 276L378 277L377 276z"/>
<path style="fill:#a17326; stroke:none;" d="M378 276L379 277L378 276M394 276L395 277L394 276z"/>
<path style="fill:#2e2a1d; stroke:none;" d="M395 276L396 277L395 276z"/>
<path style="fill:#a17326; stroke:none;" d="M146 277L146 283L147 283L147 278L168 278L146 277z"/>
<path style="fill:#5a4620; stroke:none;" d="M193 277L194 278L193 277z"/>
<path style="fill:#2e2a1d; stroke:none;" d="M199 277L200 278L199 277z"/>
<path style="fill:#a17326; stroke:none;" d="M217 277L218 278L217 277z"/>
<path style="fill:#5a4620; stroke:none;" d="M251 277L252 278L251 277z"/>
<path style="fill:#a17326; stroke:none;" d="M252 277L253 278L252 277M266 277L267 278L266 277z"/>
<path style="fill:#5a4620; stroke:none;" d="M267 277L268 278L267 277M327 277L328 278L327 277z"/>
<path style="fill:#a17326; stroke:none;" d="M328 277L329 278L328 277M340 277L341 278L340 277z"/>
<path style="fill:#5a4620; stroke:none;" d="M341 277L342 278L341 277z"/>
<path style="fill:#2e2a1d; stroke:none;" d="M342 277L343 278L342 277M379 277L380 278L379 277z"/>
<path style="fill:#a17326; stroke:none;" d="M380 277L381 278L380 277M392 277L393 278L392 277z"/>
<path style="fill:#2e2a1d; stroke:none;" d="M393 277L394 278L393 277z"/>
<path style="fill:#f7aa2d; stroke:none;" d="M147 278L146 284L168 284L168 278L147 278z"/>
<path style="fill:#2e2a1d; stroke:none;" d="M254 278L255 279L254 278z"/>
<path style="fill:#5a4620; stroke:none;" d="M255 278L256 279L255 278z"/>
<path style="fill:#a17326; stroke:none;" d="M256 278L256 279L263 279L256 278z"/>
<path style="fill:#5a4620; stroke:none;" d="M263.667 278.333L264.333 278.667L263.667 278.333z"/>
<path style="fill:#2e2a1d; stroke:none;" d="M330 278L331 279L330 278z"/>
<path style="fill:#5a4620; stroke:none;" d="M331 278L331 279L338 279L331 278z"/>
<path style="fill:#2e2a1d; stroke:none;" d="M338 278L339 279L338 278z"/>
<path style="fill:#5a4620; stroke:none;" d="M382.667 278.333L383.333 278.667L382.667 278.333z"/>
<path style="fill:#a17326; stroke:none;" d="M384 278L384 279L389 279L384 278z"/>
<path style="fill:#5a4620; stroke:none;" d="M389 278L390 279L389 278z"/>
<path style="fill:#2e2a1d; stroke:none;" d="M390 278L391 279L390 278z"/>
<path style="fill:#a17326; stroke:none;" d="M167 280L168 281L167 280M146 288L147 288L147 285L168 286C163.442 282.547 148.089 281.707 146 288z"/>
<path style="fill:#f7aa2d; stroke:none;" d="M147 285L147 288L168 288C164.523 282.636 152.819 285 147 285z"/>
<path style="fill:#a17326; stroke:none;" d="M148 289L149 292L150 292L149 289L166 289L148 289z"/>
<path style="fill:#f7aa2d; stroke:none;" d="M149 289L150 293L165 293L166 289L149 289z"/>
<path style="fill:#a17326; stroke:none;" d="M373 293L374 294L373 293z"/>
</svg>
